<?xml version="1.0" encoding="UTF-8" standalone="no"?>
<svg
   xmlns:dc="http://purl.org/dc/elements/1.1/"
   xmlns:cc="http://creativecommons.org/ns#"
   xmlns:rdf="http://www.w3.org/1999/02/22-rdf-syntax-ns#"
   xmlns:svg="http://www.w3.org/2000/svg"
   xmlns="http://www.w3.org/2000/svg"
   xmlns:sodipodi="http://sodipodi.sourceforge.net/DTD/sodipodi-0.dtd"
   xmlns:inkscape="http://www.inkscape.org/namespaces/inkscape"
   style="font-style:normal;font-weight:normal;font-size:12px;font-family:Dialog;color-interpolation:auto;fill:#000000;fill-opacity:1;stroke:#000000;stroke-width:1;stroke-linecap:square;stroke-linejoin:miter;stroke-miterlimit:10;stroke-dasharray:none;stroke-dashoffset:0;stroke-opacity:1;color-rendering:auto;image-rendering:auto;shape-rendering:auto;text-rendering:auto"
   width="832.7804"
   height="406.3186"
   version="1.1"
   id="svg1401"
   sodipodi:docname="Example stability of impedance.svg"
   inkscape:version="1.0 (4035a4fb49, 2020-05-01)">
  <metadata
     id="metadata1405">
    <rdf:RDF>
      <cc:Work
         rdf:about="">
        <dc:format>image/svg+xml</dc:format>
        <dc:type
           rdf:resource="http://purl.org/dc/dcmitype/StillImage" />
      </cc:Work>
    </rdf:RDF>
  </metadata>
  <sodipodi:namedview
     inkscape:document-rotation="0"
     pagecolor="#ffffff"
     bordercolor="#666666"
     borderopacity="1"
     objecttolerance="10"
     gridtolerance="10"
     guidetolerance="10"
     inkscape:pageopacity="0"
     inkscape:pageshadow="2"
     inkscape:window-width="1920"
     inkscape:window-height="1018"
     id="namedview1403"
     showgrid="false"
     inkscape:zoom="1.2828511"
     inkscape:cx="341.66825"
     inkscape:cy="208.686"
     inkscape:window-x="-8"
     inkscape:window-y="-8"
     inkscape:window-maximized="1"
     inkscape:current-layer="svg1401" />
  <!--Generated by the Batik Graphics2D SVG Generator-->
  <text
     transform="rotate(-90)"
     id="text1901"
     y="11.537848"
     x="-246.89728"
     style="font-style:normal;font-variant:normal;font-weight:normal;font-stretch:normal;font-size:18.6667px;line-height:1.25;font-family:'NewsGoth BT';-inkscape-font-specification:'NewsGoth BT';fill:#262626;fill-opacity:1"
     xml:space="preserve"><tspan
       style="font-size:14.6667px;fill:#262626;fill-opacity:1;stroke:none"
       y="11.537848"
       x="-246.89728"
       id="tspan1903"
       sodipodi:role="line">Impedance (MΩ)</tspan></text>
  <defs
     id="genericDefs">
    <defs
       id="defs1">
      <clipPath
         id="clipPath1"
         clipPathUnits="userSpaceOnUse">
        <path
           id="path1121"
           d="M 0,0 H 998 V 420 H 0 Z" />
      </clipPath>
    </defs>
  </defs>
  <g
     id="g1133"
     style="color-interpolation:sRGB;fill:#ffffff;stroke:#ffffff;color-rendering:optimizeSpeed;image-rendering:optimizeSpeed;shape-rendering:crispEdges;text-rendering:optimizeSpeed"
     transform="matrix(0.86337923,0,0,1,-10.959548,-12.9375)" />
  <g
     transform="translate(-80.9211,-12.9375)"
     id="g1397"
     style="color-interpolation:linearRGB;fill:#262626;fill-opacity:0.702;stroke:#262626;stroke-width:0.6667;stroke-linecap:butt;stroke-linejoin:bevel;stroke-miterlimit:1;stroke-dasharray:10, 6;stroke-opacity:0.702;color-rendering:optimizeQuality;image-rendering:optimizeQuality;text-rendering:geometricPrecision">
    <line
       id="line1395"
       y1="344.85709"
       x2="903"
       x1="130"
       style="fill:none;stroke:#959595;stroke-width:2;stroke-miterlimit:1;stroke-dasharray:8, 8;stroke-dashoffset:0;stroke-opacity:1"
       y2="344.85709" />
  </g>
  <g
     transform="translate(-80.9211,-12.9375)"
     id="g1151"
     style="color-interpolation:linearRGB;fill:#262626;stroke:#262626;stroke-width:0.6667;stroke-linejoin:round;color-rendering:optimizeQuality;image-rendering:optimizeQuality;text-rendering:geometricPrecision">
    <line
       id="line1135"
       y1="369"
       x2="903"
       x1="130"
       style="fill:none"
       y2="369" />
    <line
       id="line1137"
       y1="369"
       x2="130"
       x1="130"
       style="fill:none"
       y2="376.73001" />
    <line
       id="line1139"
       y1="369"
       x2="258.83331"
       x1="258.83331"
       style="fill:none"
       y2="376.73001" />
    <line
       id="line1141"
       y1="369"
       x2="387.66669"
       x1="387.66669"
       style="fill:none"
       y2="376.73001" />
    <line
       id="line1143"
       y1="369"
       x2="516.5"
       x1="516.5"
       style="fill:none"
       y2="376.73001" />
    <line
       id="line1145"
       y1="369"
       x2="645.33331"
       x1="645.33331"
       style="fill:none"
       y2="376.73001" />
    <line
       id="line1147"
       y1="369"
       x2="774.16669"
       x1="774.16669"
       style="fill:none"
       y2="376.73001" />
    <line
       id="line1149"
       y1="369"
       x2="903"
       x1="903"
       style="fill:none"
       y2="376.73001" />
  </g>
  <g
     id="g1155"
     style="font-size:13.3333px;font-family:'NewsGoth BT';color-interpolation:linearRGB;fill:#262626;stroke:#262626;color-rendering:optimizeQuality;image-rendering:optimizeQuality;text-rendering:geometricPrecision"
     transform="translate(49.0789,369.1258)">
    <path
       id="path1153"
       d="m -2.8594,8.3125 q 0,1.9844 0.5703,2.9922 0.5703,1.0078 1.6953,1.0078 1.125,0 1.6954,-1.0078 0.5703,-1.0078 0.5703,-2.9922 0,-2 -0.5703,-3.0078 -0.5704,-1.0078 -1.6954,-1.0078 -1.1093,0 -1.6874,1.0234 -0.5782,1.0235 -0.5782,2.9922 z m -1,0 q 0,-2.375 0.8438,-3.6172 0.8437,-1.2422 2.4218,-1.2422 1.5938,0 2.4297,1.2422 0.836,1.2422 0.836,3.6172 0,2.3594 -0.836,3.6016 -0.8359,1.2421 -2.4297,1.2421 -1.5781,0 -2.4218,-1.2421 -0.8438,-1.2422 -0.8438,-3.6016 z"
       style="stroke:none" />
  </g>
  <g
     id="g1159"
     style="font-size:13.3333px;font-family:'NewsGoth BT';color-interpolation:linearRGB;fill:#262626;stroke:#262626;color-rendering:optimizeQuality;image-rendering:optimizeQuality;text-rendering:geometricPrecision"
     transform="translate(177.9122,369.1258)">
    <path
       id="path1157"
       d="m -7.8594,13 v -0.875 q 0.3125,-0.7031 0.8203,-1.3516 0.5079,-0.6484 1.2579,-1.3046 0.3281,-0.2969 1.0703,-0.836 0.7421,-0.539 1.039,-0.8516 0.4531,-0.4687 0.6563,-0.8906 0.2031,-0.4218 0.2031,-0.8594 0,-0.8124 -0.4766,-1.2812 -0.4765,-0.4688 -1.3203,-0.4688 -0.8437,0 -1.4218,0.5157 -0.5782,0.5156 -0.7813,1.5 L -7.7188,6.0938 q 0.2813,-1.2969 1.0782,-1.9688 0.7968,-0.6719 2.0625,-0.6719 1.2812,0 2.0312,0.6875 0.75,0.6875 0.75,1.8438 0,0.5 -0.125,0.9062 -0.125,0.4063 -0.375,0.75 -0.4843,0.6875 -2,1.8125 -0.3437,0.25 -0.5156,0.375 -0.7969,0.5938 -1.3125,1.1719 -0.5156,0.5781 -0.7656,1.125 h 5.0937 V 13 Z m 8.2492,-1.6719 0.8594,-0.5 q 0.4062,0.75 0.9531,1.1328 0.5469,0.3829 1.2031,0.3829 1.0313,0 1.625,-0.7032 Q 5.6242,10.9375 5.6242,9.75 5.6242,8.7031 5.0539,8.0703 4.4836,7.4375 3.5617,7.4375 q -0.7031,0 -1.2031,0.375 -0.5,0.375 -0.7344,1.0781 L 0.7804,8.6875 1.1711,3.6094 h 4.8125 v 0.875 h -4 l -0.25,2.9531 Q 2.1554,7 2.6164,6.8047 3.0773,6.6094 3.7023,6.6094 q 1.3125,0 2.1172,0.875 0.8047,0.875 0.8047,2.2968 0,1.5 -0.8828,2.4376 -0.8828,0.9374 -2.3047,0.9374 -1.0625,0 -1.8281,-0.4609 -0.7657,-0.4609 -1.2188,-1.3672 z"
       style="stroke:none" />
  </g>
  <g
     id="g1163"
     style="font-size:13.3333px;font-family:'NewsGoth BT';color-interpolation:linearRGB;fill:#262626;stroke:#262626;color-rendering:optimizeQuality;image-rendering:optimizeQuality;text-rendering:geometricPrecision"
     transform="translate(306.7456,369.1258)">
    <path
       id="path1161"
       d="m -7.625,11.3281 0.8594,-0.5 q 0.4062,0.75 0.9531,1.1328 0.5469,0.3829 1.2031,0.3829 1.0313,0 1.625,-0.7032 0.5938,-0.7031 0.5938,-1.8906 0,-1.0469 -0.5703,-1.6797 -0.5703,-0.6328 -1.4922,-0.6328 -0.7031,0 -1.2031,0.375 -0.5,0.375 -0.7344,1.0781 L -7.2344,8.6875 -6.8438,3.6094 h 4.8126 v 0.875 h -4 l -0.25,2.9531 Q -5.8594,7 -5.3984,6.8047 q 0.4609,-0.1953 1.0859,-0.1953 1.3125,0 2.1172,0.875 0.8047,0.875 0.8047,2.2968 0,1.5 -0.8828,2.4376 -0.8828,0.9374 -2.3047,0.9374 -1.0625,0 -1.8281,-0.4609 -0.7657,-0.4609 -1.2188,-1.3672 z M 1.1554,8.3125 q 0,1.9844 0.5703,2.9922 0.5704,1.0078 1.6954,1.0078 1.125,0 1.6953,-1.0078 0.5703,-1.0078 0.5703,-2.9922 0,-2 -0.5703,-3.0078 Q 4.5461,4.2969 3.4211,4.2969 2.3117,4.2969 1.7336,5.3203 1.1554,6.3438 1.1554,8.3125 Z m -1,0 q 0,-2.375 0.8438,-3.6172 0.8437,-1.2422 2.4219,-1.2422 1.5937,0 2.4296,1.2422 0.836,1.2422 0.836,3.6172 0,2.3594 -0.836,3.6016 -0.8359,1.2421 -2.4296,1.2421 -1.5782,0 -2.4219,-1.2421 Q 0.1554,10.6719 0.1554,8.3125 Z"
       style="stroke:none" />
  </g>
  <g
     id="g1167"
     style="font-size:13.3333px;font-family:'NewsGoth BT';color-interpolation:linearRGB;fill:#262626;stroke:#262626;color-rendering:optimizeQuality;image-rendering:optimizeQuality;text-rendering:geometricPrecision"
     transform="translate(435.5789,369.1258)">
    <path
       id="path1165"
       d="M -6.7188,13.1562 -2.75,4.4844 h -4.7969 v -0.875 h 5.8907 v 0.625 l -3.9844,8.9218 z m 7.1086,-1.8281 0.8594,-0.5 q 0.4062,0.75 0.9531,1.1328 0.5469,0.3829 1.2031,0.3829 1.0313,0 1.625,-0.7032 Q 5.6242,10.9375 5.6242,9.75 5.6242,8.7031 5.0539,8.0703 4.4836,7.4375 3.5617,7.4375 q -0.7031,0 -1.2031,0.375 -0.5,0.375 -0.7344,1.0781 L 0.7804,8.6875 1.1711,3.6094 h 4.8125 v 0.875 h -4 l -0.25,2.9531 Q 2.1554,7 2.6164,6.8047 3.0773,6.6094 3.7023,6.6094 q 1.3125,0 2.1172,0.875 0.8047,0.875 0.8047,2.2968 0,1.5 -0.8828,2.4376 -0.8828,0.9374 -2.3047,0.9374 -1.0625,0 -1.8281,-0.4609 -0.7657,-0.4609 -1.2188,-1.3672 z"
       style="stroke:none" />
  </g>
  <g
     id="g1171"
     style="font-size:13.3333px;font-family:'NewsGoth BT';color-interpolation:linearRGB;fill:#262626;stroke:#262626;color-rendering:optimizeQuality;image-rendering:optimizeQuality;text-rendering:geometricPrecision"
     transform="translate(564.4122,369.1258)">
    <path
       id="path1169"
       d="m -8.0781,3.4531 v 8.7031 h 1.5469 V 13 h -4.0626 V 12.1562 H -9 V 4.5625 l -1.75,0.2031 V 4.1094 q 0.5469,-0.1563 1.0312,-0.3203 0.4844,-0.1641 0.8907,-0.336 z m 5.2335,4.8594 q 0,1.9844 0.5703,2.9922 0.5704,1.0078 1.6954,1.0078 1.125,0 1.6953,-1.0078 0.5703,-1.0078 0.5703,-2.9922 0,-2 -0.5703,-3.0078 -0.5703,-1.0078 -1.6953,-1.0078 -1.1094,0 -1.6875,1.0234 -0.5782,1.0235 -0.5782,2.9922 z m -1,0 q 0,-2.375 0.8438,-3.6172 0.8437,-1.2422 2.4219,-1.2422 1.5937,0 2.4296,1.2422 0.836,1.2422 0.836,3.6172 0,2.3594 -0.836,3.6016 -0.8359,1.2421 -2.4296,1.2421 -1.5782,0 -2.4219,-1.2421 -0.8438,-1.2422 -0.8438,-3.6016 z m 9.0148,0 q 0,1.9844 0.5703,2.9922 0.5704,1.0078 1.6954,1.0078 1.125,0 1.6953,-1.0078 0.5703,-1.0078 0.5703,-2.9922 0,-2 -0.5703,-3.0078 Q 8.5609,4.2969 7.4359,4.2969 6.3265,4.2969 5.7484,5.3203 5.1702,6.3438 5.1702,8.3125 Z m -1,0 q 0,-2.375 0.8438,-3.6172 0.8437,-1.2422 2.4219,-1.2422 1.5937,0 2.4296,1.2422 0.836,1.2422 0.836,3.6172 0,2.3594 -0.836,3.6016 -0.8359,1.2421 -2.4296,1.2421 -1.5782,0 -2.4219,-1.2421 Q 4.1702,10.6719 4.1702,8.3125 Z"
       style="stroke:none" />
  </g>
  <g
     id="g1175"
     style="font-size:13.3333px;font-family:'NewsGoth BT';color-interpolation:linearRGB;fill:#262626;stroke:#262626;color-rendering:optimizeQuality;image-rendering:optimizeQuality;text-rendering:geometricPrecision"
     transform="translate(693.2456,369.1258)">
    <path
       id="path1173"
       d="m -8.0781,3.4531 v 8.7031 h 1.5469 V 13 h -4.0626 V 12.1562 H -9 V 4.5625 l -1.75,0.2031 V 4.1094 q 0.5469,-0.1563 1.0312,-0.3203 0.4844,-0.1641 0.8907,-0.336 z M -3.8446,13 v -0.875 q 0.3125,-0.7031 0.8203,-1.3516 0.5079,-0.6484 1.2579,-1.3046 0.3281,-0.2969 1.0703,-0.836 Q 0.0461,8.0938 0.3429,7.7812 0.7961,7.3125 0.9992,6.8906 1.2023,6.4688 1.2023,6.0312 1.2023,5.2188 0.7257,4.75 0.2492,4.2812 -0.5946,4.2812 q -0.8437,0 -1.4218,0.5157 -0.5782,0.5156 -0.7813,1.5 L -3.7039,6.0938 q 0.2812,-1.2969 1.0781,-1.9688 0.7969,-0.6719 2.0625,-0.6719 1.2812,0 2.0312,0.6875 0.75,0.6875 0.75,1.8438 0,0.5 -0.125,0.9062 -0.125,0.4063 -0.375,0.75 -0.4843,0.6875 -2,1.8125 -0.3437,0.25 -0.5156,0.375 -0.7969,0.5938 -1.3125,1.1719 -0.5156,0.5781 -0.7656,1.125 H 2.2179 V 13 Z m 8.2492,-1.6719 0.8594,-0.5 q 0.4062,0.75 0.9531,1.1328 0.5469,0.3829 1.2031,0.3829 1.0313,0 1.625,-0.7032 Q 9.639,10.9375 9.639,9.75 9.639,8.7031 9.0687,8.0703 8.4984,7.4375 7.5765,7.4375 q -0.7031,0 -1.2031,0.375 -0.5,0.375 -0.7344,1.0781 L 4.7952,8.6875 5.1859,3.6094 h 4.8125 v 0.875 h -4 l -0.25,2.9531 Q 6.1702,7 6.6312,6.8047 7.0921,6.6094 7.7171,6.6094 q 1.3125,0 2.1172,0.875 0.8047,0.875 0.8047,2.2968 0,1.5 -0.8828,2.4376 -0.8828,0.9374 -2.3047,0.9374 -1.0625,0 -1.8281,-0.4609 -0.7657,-0.4609 -1.2188,-1.3672 z"
       style="stroke:none" />
  </g>
  <g
     id="g1179"
     style="font-size:13.3333px;font-family:'NewsGoth BT';color-interpolation:linearRGB;fill:#262626;stroke:#262626;color-rendering:optimizeQuality;image-rendering:optimizeQuality;text-rendering:geometricPrecision"
     transform="translate(822.0789,369.1258)">
    <path
       id="path1177"
       d="m -8.0781,3.4531 v 8.7031 h 1.5469 V 13 h -4.0626 V 12.1562 H -9 V 4.5625 l -1.75,0.2031 V 4.1094 q 0.5469,-0.1563 1.0312,-0.3203 0.4844,-0.1641 0.8907,-0.336 z m 4.4679,7.875 0.8594,-0.5 q 0.4062,0.75 0.9531,1.1328 0.5469,0.3829 1.2031,0.3829 1.0313,0 1.625,-0.7032 0.5938,-0.7031 0.5938,-1.8906 0,-1.0469 -0.5703,-1.6797 -0.5703,-0.6328 -1.4922,-0.6328 -0.7031,0 -1.2031,0.375 -0.5,0.375 -0.7344,1.0781 L -3.2196,8.6875 -2.8289,3.6094 h 4.8125 v 0.875 h -4 l -0.25,2.9531 Q -1.8446,7 -1.3836,6.8047 q 0.4609,-0.1953 1.0859,-0.1953 1.3125,0 2.1172,0.875 0.8047,0.875 0.8047,2.2968 0,1.5 -0.8828,2.4376 -0.8828,0.9374 -2.3047,0.9374 -1.0625,0 -1.8281,-0.4609 -0.7657,-0.4609 -1.2188,-1.3672 z M 5.1702,8.3125 q 0,1.9844 0.5703,2.9922 0.5704,1.0078 1.6954,1.0078 1.125,0 1.6953,-1.0078 0.5703,-1.0078 0.5703,-2.9922 0,-2 -0.5703,-3.0078 Q 8.5609,4.2969 7.4359,4.2969 6.3265,4.2969 5.7484,5.3203 5.1702,6.3438 5.1702,8.3125 Z m -1,0 q 0,-2.375 0.8438,-3.6172 0.8437,-1.2422 2.4219,-1.2422 1.5937,0 2.4296,1.2422 0.836,1.2422 0.836,3.6172 0,2.3594 -0.836,3.6016 -0.8359,1.2421 -2.4296,1.2421 -1.5782,0 -2.4219,-1.2421 Q 4.1702,10.6719 4.1702,8.3125 Z"
       style="stroke:none" />
  </g>
  <g
     id="g1183"
     style="font-size:14.6667px;font-family:'NewsGoth BT';color-interpolation:linearRGB;fill:#262626;stroke:#262626;color-rendering:optimizeQuality;image-rendering:optimizeQuality;text-rendering:geometricPrecision"
     transform="translate(435.5793,388.4592)">
    <path
       id="path1181"
       d="m -53.7344,5.1562 h -1.125 v 8.7813 h 0.9688 q 1.2187,0 1.9297,-0.1719 0.7109,-0.1718 1.2109,-0.5781 0.6875,-0.5313 1.0469,-1.4609 0.3593,-0.9297 0.3593,-2.1328 0,-1.2969 -0.3593,-2.2422 -0.3594,-0.9454 -1.0625,-1.4922 -0.4844,-0.375 -1.125,-0.5391 -0.6406,-0.1641 -1.8438,-0.1641 z M -56.0469,15 V 4.1562 h 2.5781 q 1.25,0 2.0313,0.2032 0.7813,0.2031 1.3906,0.6562 0.9063,0.6875 1.3907,1.8594 0.4843,1.1719 0.4843,2.7031 0,2.7031 -1.3906,4.0625 Q -50.9531,15 -53.7344,15 Z m 13.8152,-2.0625 v -2.1563 q -1.9687,0.4063 -2.7968,0.9063 -0.8282,0.5 -0.8282,1.2969 0,0.5312 0.3438,0.8437 0.3437,0.3125 0.9375,0.3125 0.5,0 1.0703,-0.289 0.5703,-0.2891 1.2734,-0.9141 z m -0.0468,1 q -0.5469,0.5937 -1.1719,0.8906 -0.625,0.2969 -1.3125,0.2969 -0.9688,0 -1.5703,-0.6016 -0.6016,-0.6015 -0.6016,-1.5703 0,-1.2187 1.0781,-1.9609 1.0782,-0.7422 3.625,-1.2266 V 9.1875 q 0,-0.5313 -0.4375,-0.875 -0.4375,-0.3437 -1.1406,-0.3437 -0.6406,0 -1.1328,0.3124 -0.4922,0.3126 -0.7891,0.9063 l -0.9375,-0.5 q 0.4219,-0.8281 1.1641,-1.25 0.7422,-0.4219 1.7578,-0.4219 1.25,0 1.9375,0.6094 0.6875,0.6094 0.6875,1.7188 v 4.375 q 0,0.3124 0.0391,0.6015 0.039,0.2891 0.1172,0.5547 V 15 h -1.2032 z m 5.0871,0.9375 -2.8281,-7.7188 h 1.125 l 2.2656,6.2657 2.0469,-6.2657 h 1.1094 l -2.6875,7.9688 q -0.5469,1.625 -1.1641,2.1797 -0.6172,0.5547 -1.6797,0.5547 -0.1875,0 -0.3593,-0.0235 -0.1719,-0.0234 -0.3282,-0.0547 v -1.0156 q 0.1719,0.0469 0.3282,0.0625 0.1562,0.0157 0.2812,0.0157 0.7969,0 1.2188,-0.4376 0.4218,-0.4374 0.6718,-1.5312 z m 4.0252,-1.2188 0.875,-0.7031 q 0.4688,0.6407 1.0235,0.9531 0.5546,0.3126 1.2109,0.3126 0.7187,0 1.1484,-0.3594 0.4297,-0.3594 0.4297,-0.9688 0,-0.8906 -1.7969,-1.4062 -0.4062,-0.1094 -0.625,-0.1719 -1,-0.2969 -1.4843,-0.8281 -0.4844,-0.5313 -0.4844,-1.3282 0,-0.9531 0.6562,-1.5468 0.6563,-0.5938 1.7032,-0.5938 0.875,0 1.5703,0.3203 0.6953,0.3203 1.2422,0.9922 l -0.7032,0.7188 q -0.4531,-0.5625 -0.9609,-0.8438 -0.5078,-0.2812 -1.0859,-0.2812 -0.6094,0 -0.9688,0.3125 -0.3594,0.3125 -0.3594,0.8281 0,0.25 0.1016,0.4609 0.1016,0.211 0.3047,0.3516 0.3594,0.25 1.3281,0.5156 0.4844,0.125 0.75,0.2188 1,0.3125 1.4531,0.8359 0.4532,0.5235 0.4532,1.3359 0,1.0626 -0.7657,1.7032 -0.7656,0.6406 -2.0468,0.6406 -0.9219,0 -1.7032,-0.3828 -0.7812,-0.3828 -1.2656,-1.086 z m 15.8315,-0.7187 v -2.1563 q -1.9687,0.4063 -2.7968,0.9063 -0.8282,0.5 -0.8282,1.2969 0,0.5312 0.3438,0.8437 0.3437,0.3125 0.9375,0.3125 0.5,0 1.0703,-0.289 0.5703,-0.2891 1.2734,-0.9141 z m -0.0468,1 q -0.5469,0.5937 -1.1719,0.8906 -0.625,0.2969 -1.3125,0.2969 -0.9688,0 -1.5703,-0.6016 -0.6016,-0.6015 -0.6016,-1.5703 0,-1.2187 1.0781,-1.9609 1.0782,-0.7422 3.625,-1.2266 V 9.1875 q 0,-0.5313 -0.4375,-0.875 -0.4375,-0.3437 -1.1406,-0.3437 -0.6406,0 -1.1328,0.3124 -0.4922,0.3126 -0.7891,0.9063 l -0.9375,-0.5 q 0.4219,-0.8281 1.1641,-1.25 0.7422,-0.4219 1.7578,-0.4219 1.25,0 1.9375,0.6094 0.6875,0.6094 0.6875,1.7188 v 4.375 q 0,0.3124 0.0391,0.6015 0.039,0.2891 0.1172,0.5547 V 15 h -1.2032 z M -13.9037,15 V 8.0781 h -1.3125 V 7.1562 h 1.3125 V 6.0469 q 0,-1.0313 0.4531,-1.5391 Q -12.9975,4 -12.0756,4 q 0.2188,0 0.4531,0.0391 0.2344,0.039 0.5157,0.1015 v 0.8906 q -0.2344,-0.0468 -0.4375,-0.0703 -0.2032,-0.0234 -0.375,-0.0234 -0.4532,0 -0.6719,0.2578 -0.2188,0.2578 -0.2188,0.7578 v 1.2031 h 1.6407 V 8.0781 H -12.81 V 15 Z m 7.0563,-0.9375 v 0.9063 q -0.25,0.0781 -0.5312,0.1171 -0.2813,0.0391 -0.6406,0.0391 -0.875,0 -1.3282,-0.375 -0.4531,-0.375 -0.4531,-1.1406 V 8.0781 h -1.1562 V 7.1562 h 1.1562 V 4.625 h 1.1406 v 2.5312 h 1.7969 v 0.9219 h -1.7969 v 5.0313 q 0,0.6718 0.211,0.8672 0.2109,0.1953 0.8203,0.1953 0.2969,0 0.7344,-0.1094 z m 1.8465,-3.7031 h 3.8281 Q -1.1884,9.25 -1.6963,8.6016 -2.2041,7.9531 -3.0634,7.9531 q -0.875,0 -1.375,0.6328 -0.5,0.6329 -0.5625,1.7735 z m 4.3593,2.4375 0.7969,0.5 q -0.4687,0.9375 -1.2344,1.3828 -0.7656,0.4453 -1.9062,0.4453 -1.5313,0 -2.336,-1.0391 -0.8046,-1.039 -0.8046,-3.0234 0,-1.8906 0.8125,-2.9687 0.8125,-1.0782 2.25,-1.0782 1.4375,0 2.2421,1.0391 0.8047,1.0391 0.8047,2.9141 v 0.3281 h -5 v 0.25 q 0,1.2187 0.586,1.9375 0.5859,0.7187 1.5547,0.7187 0.7343,0 1.3125,-0.3672 0.5781,-0.3671 0.9218,-1.039 z M 1.5793,15 V 7.1562 H 2.6887 V 8.9375 Q 3.0793,7.9688 3.634,7.5156 4.1887,7.0625 4.9543,7.0625 q 0.0938,0 0.1485,0.0078 0.0547,0.0078 0.1015,0.0078 V 8.1562 H 5.0637 q -0.7969,0 -1.4062,0.6329 -0.6094,0.6328 -0.9688,1.8515 V 15 Z M 10.7239,5.4844 V 4.1562 h 1.2812 V 5.4844 Z M 10.802,15 V 7.1562 h 1.125 V 15 Z m 3.5417,0 V 7.1562 h 1 v 1.1876 q 0.6562,-0.7032 1.2578,-1.0157 0.6015,-0.3125 1.3047,-0.3125 0.7343,0 1.2109,0.336 0.4766,0.3359 0.6797,0.9922 0.6562,-0.7032 1.2734,-1.0157 0.6172,-0.3125 1.336,-0.3125 0.9531,0 1.4765,0.5703 0.5235,0.5703 0.5235,1.6016 V 15 H 23.328 V 9.5469 q 0,-0.8438 -0.289,-1.211 -0.2891,-0.3671 -0.9453,-0.3671 -0.5938,0 -1.1328,0.289 -0.5391,0.2891 -1.0704,0.8828 V 15 H 18.8593 V 9.5781 q 0,-0.8593 -0.2969,-1.2343 -0.2969,-0.375 -0.9531,-0.375 -0.5781,0 -1.1016,0.2812 -0.5234,0.2812 -1.0859,0.8906 V 15 Z m 13.2609,-1.9688 q 0.4375,0.625 0.9453,0.9141 0.5078,0.2891 1.1484,0.2891 1,0 1.5391,-0.8047 0.539,-0.8047 0.539,-2.3047 0,-1.5781 -0.5468,-2.375 -0.5469,-0.7969 -1.6407,-0.7969 -0.6093,0 -1.1171,0.2969 -0.5079,0.2969 -0.8672,0.875 z m -1.0782,4.8126 V 7.1562 h 0.8438 l 0.1719,0.9532 q 0.4531,-0.5782 0.9531,-0.836 0.5,-0.2578 1.1406,-0.2578 1.5625,0 2.4141,1.0703 0.8515,1.0703 0.8515,3.0391 0,1.9375 -0.8437,2.9688 -0.8438,1.0312 -2.4219,1.0312 -0.6719,0 -1.164,-0.2344 -0.4922,-0.2344 -0.8672,-0.7344 v 3.6876 z M 34.5182,15 V 4.1562 h 1.1094 V 15 Z m 7.6667,-2.0625 v -2.1563 q -1.9688,0.4063 -2.7969,0.9063 -0.8281,0.5 -0.8281,1.2969 0,0.5312 0.3437,0.8437 0.3438,0.3125 0.9375,0.3125 0.5,0 1.0704,-0.289 0.5703,-0.2891 1.2734,-0.9141 z m -0.0469,1 q -0.5469,0.5937 -1.1719,0.8906 -0.625,0.2969 -1.3125,0.2969 -0.9687,0 -1.5703,-0.6016 -0.6015,-0.6015 -0.6015,-1.5703 0,-1.2187 1.0781,-1.9609 1.0781,-0.7422 3.625,-1.2266 V 9.1875 q 0,-0.5313 -0.4375,-0.875 -0.4375,-0.3437 -1.1406,-0.3437 -0.6407,0 -1.1328,0.3124 -0.4922,0.3126 -0.7891,0.9063 l -0.9375,-0.5 q 0.4219,-0.8281 1.1641,-1.25 0.7421,-0.4219 1.7578,-0.4219 1.25,0 1.9375,0.6094 0.6875,0.6094 0.6875,1.7188 v 4.375 q 0,0.3124 0.039,0.6015 0.0391,0.2891 0.1172,0.5547 V 15 H 42.2474 Z M 45.4908,15 V 7.1562 h 1 v 1.1876 q 0.6407,-0.6876 1.2735,-1.0079 0.6328,-0.3203 1.3203,-0.3203 0.9844,0 1.5156,0.5703 0.5313,0.5703 0.5313,1.6016 V 15 H 50.069 V 9.6094 q 0,-0.8906 -0.2969,-1.2656 -0.2969,-0.375 -0.9688,-0.375 -0.5781,0 -1.1406,0.289 -0.5625,0.2891 -1.0937,0.8828 V 15 Z m 10.9671,-0.9375 v 0.9063 q -0.25,0.0781 -0.5312,0.1171 -0.2813,0.0391 -0.6407,0.0391 -0.875,0 -1.3281,-0.375 -0.4531,-0.375 -0.4531,-1.1406 V 8.0781 H 52.3485 V 7.1562 h 1.1563 V 4.625 h 1.1406 v 2.5312 h 1.7969 v 0.9219 h -1.7969 v 5.0313 q 0,0.6718 0.2109,0.8672 0.211,0.1953 0.8204,0.1953 0.2968,0 0.7343,-0.1094 z"
       style="stroke:none" />
  </g>
  <g
     transform="translate(-80.9211,-12.9375)"
     id="g1203"
     style="color-interpolation:linearRGB;fill:#262626;stroke:#262626;stroke-width:0.6667;stroke-linejoin:round;color-rendering:optimizeQuality;image-rendering:optimizeQuality;text-rendering:geometricPrecision">
    <line
       id="line1185"
       y1="369"
       x2="130"
       x1="130"
       style="fill:none"
       y2="31" />
    <line
       id="line1187"
       y1="369"
       x2="122.27"
       x1="130"
       style="fill:none"
       y2="369" />
    <line
       id="line1189"
       y1="320.71429"
       x2="122.27"
       x1="130"
       style="fill:none"
       y2="320.71429" />
    <line
       id="line1191"
       y1="272.42859"
       x2="122.27"
       x1="130"
       style="fill:none"
       y2="272.42859" />
    <line
       id="line1193"
       y1="224.1429"
       x2="122.27"
       x1="130"
       style="fill:none"
       y2="224.1429" />
    <line
       id="line1195"
       y1="175.8571"
       x2="122.27"
       x1="130"
       style="fill:none"
       y2="175.8571" />
    <line
       id="line1197"
       y1="127.5714"
       x2="122.27"
       x1="130"
       style="fill:none"
       y2="127.5714" />
    <line
       id="line1199"
       y1="79.285698"
       x2="122.27"
       x1="130"
       style="fill:none"
       y2="79.285698" />
    <line
       id="line1201"
       y1="31"
       x2="122.27"
       x1="130"
       style="fill:none"
       y2="31" />
  </g>
  <g
     id="g1207"
     style="font-size:13.3333px;font-family:'NewsGoth BT';color-interpolation:linearRGB;fill:#262626;stroke:#262626;color-rendering:optimizeQuality;image-rendering:optimizeQuality;text-rendering:geometricPrecision"
     transform="translate(36.0156,356.0625)">
    <path
       id="path1205"
       d="m -7.3594,-0.1875 q 0,1.9844 0.5703,2.9922 0.5703,1.0078 1.6953,1.0078 1.125,0 1.6954,-1.0078 0.5703,-1.0078 0.5703,-2.9922 0,-2 -0.5703,-3.0078 -0.5704,-1.0078 -1.6954,-1.0078 -1.1093,0 -1.6874,1.0234 -0.5782,1.0235 -0.5782,2.9922 z m -1,0 q 0,-2.375 0.8438,-3.6172 0.8437,-1.2422 2.4218,-1.2422 1.5938,0 2.4297,1.2422 0.836,1.2422 0.836,3.6172 0,2.3594 -0.836,3.6016 -0.8359,1.2421 -2.4297,1.2421 -1.5781,0 -2.4218,-1.2421 -0.8438,-1.2422 -0.8438,-3.6016 z"
       style="stroke:none" />
  </g>
  <g
     id="g1211"
     style="font-size:13.3333px;font-family:'NewsGoth BT';color-interpolation:linearRGB;fill:#262626;stroke:#262626;color-rendering:optimizeQuality;image-rendering:optimizeQuality;text-rendering:geometricPrecision"
     transform="translate(36.0156,307.7768)">
    <path
       id="path1209"
       d="M -8.3594,4.5 V 3.625 q 0.3125,-0.7031 0.8203,-1.3516 0.5079,-0.6484 1.2579,-1.3046 0.3281,-0.2969 1.0703,-0.836 0.7421,-0.539 1.039,-0.8516 0.4531,-0.4687 0.6563,-0.8906 0.2031,-0.4218 0.2031,-0.8594 0,-0.8124 -0.4766,-1.2812 -0.4765,-0.4688 -1.3203,-0.4688 -0.8437,0 -1.4218,0.5157 -0.5782,0.5156 -0.7813,1.5 l -0.9063,-0.2031 q 0.2813,-1.2969 1.0782,-1.9688 0.7968,-0.6719 2.0625,-0.6719 1.2812,0 2.0312,0.6875 0.75,0.6875 0.75,1.8438 0,0.5 -0.125,0.9062 -0.125,0.4063 -0.375,0.75 -0.4843,0.6875 -2,1.8125 -0.3437,0.25 -0.5156,0.375 Q -6.1094,1.9219 -6.625,2.5 -7.1406,3.0781 -7.3906,3.625 h 5.0937 V 4.5 Z"
       style="stroke:none" />
  </g>
  <g
     id="g1215"
     style="font-size:13.3333px;font-family:'NewsGoth BT';color-interpolation:linearRGB;fill:#262626;stroke:#262626;color-rendering:optimizeQuality;image-rendering:optimizeQuality;text-rendering:geometricPrecision"
     transform="translate(36.0156,259.4911)">
    <path
       id="path1213"
       d="m -3.3125,-4.8906 v 6.3594 h 1.5469 v 0.8124 h -1.5469 v 2.375 H -4.2344 V 2.2812 H -8.4688 V 1.6094 l 3.8126,-6.5 z m -0.9219,6.3594 v -5.5 l -3.2031,5.5 z"
       style="stroke:none" />
  </g>
  <g
     id="g1219"
     style="font-size:13.3333px;font-family:'NewsGoth BT';color-interpolation:linearRGB;fill:#262626;stroke:#262626;color-rendering:optimizeQuality;image-rendering:optimizeQuality;text-rendering:geometricPrecision"
     transform="translate(36.0156,211.2054)">
    <path
       id="path1217"
       d="m -7.1875,1.1719 q 0.0469,1.2187 0.6484,1.9297 0.6016,0.7109 1.6016,0.7109 0.875,0 1.4687,-0.625 0.5938,-0.625 0.5938,-1.5625 0,-1.0156 -0.5469,-1.625 -0.5469,-0.6094 -1.4531,-0.6094 -0.7344,0 -1.3281,0.4532 -0.5938,0.4531 -0.9844,1.3281 z m 0.0156,-1.4063 q 0.5157,-0.6094 1.1172,-0.9062 0.6016,-0.2969 1.2891,-0.2969 1.3125,0 2.1094,0.8437 0.7968,0.8438 0.7968,2.25 0,1.3126 -0.8594,2.1485 -0.8593,0.8359 -2.2343,0.8359 -1.6094,0 -2.4375,-1.1015 -0.8282,-1.1016 -0.8282,-3.2735 0,-2.4375 1.0157,-3.8672 1.0156,-1.4296 2.7343,-1.4296 0.5782,0 1.0938,0.1328 0.5156,0.1328 1.0312,0.414 l -0.4218,0.8125 q -0.3438,-0.25 -0.7656,-0.3672 -0.4219,-0.1171 -0.9219,-0.1171 -1.25,0 -1.9844,1.0546 -0.7344,1.0547 -0.7344,2.8672 z"
       style="stroke:none" />
  </g>
  <g
     id="g1223"
     style="font-size:13.3333px;font-family:'NewsGoth BT';color-interpolation:linearRGB;fill:#262626;stroke:#262626;color-rendering:optimizeQuality;image-rendering:optimizeQuality;text-rendering:geometricPrecision"
     transform="translate(36.0156,162.9196)">
    <path
       id="path1221"
       d="m -5.2344,-0.0781 q -1.1094,0.4219 -1.625,0.9453 -0.5156,0.5234 -0.5156,1.2109 0,0.7657 0.625,1.2422 0.625,0.4766 1.625,0.4766 1.1094,0 1.7422,-0.4531 Q -2.75,2.8906 -2.75,2.0781 -2.75,1.3594 -3.2969,0.875 -3.8438,0.3906 -5.2344,-0.0781 Z m 0.25,-0.8438 q 1.0469,-0.3437 1.4766,-0.75 0.4297,-0.4062 0.4297,-1.0781 0,-0.6875 -0.5547,-1.0938 -0.5547,-0.4062 -1.4766,-0.4062 -0.8594,0 -1.414,0.4219 -0.5547,0.4219 -0.5547,1.0625 0,0.5937 0.5156,1.0468 0.5156,0.4532 1.5781,0.7969 z m -1.3281,0.4375 q -0.8281,-0.3125 -1.2656,-0.875 -0.4375,-0.5625 -0.4375,-1.3125 0,-1.0625 0.7968,-1.7187 0.7969,-0.6563 2.1094,-0.6563 1.3906,0 2.2032,0.6328 0.8124,0.6329 0.8124,1.6953 0,0.7813 -0.4296,1.3282 -0.4297,0.5468 -1.2735,0.875 1.0469,0.4218 1.5469,1.0625 0.5,0.6406 0.5,1.5781 0,1.1875 -0.8906,1.8594 -0.8906,0.6718 -2.4688,0.6718 -1.5156,0 -2.3828,-0.6874 -0.8672,-0.6876 -0.8672,-1.9063 0,-0.8437 0.5313,-1.5078 0.5312,-0.6641 1.5156,-1.0391 z"
       style="stroke:none" />
  </g>
  <g
     id="g1227"
     style="font-size:13.3333px;font-family:'NewsGoth BT';color-interpolation:linearRGB;fill:#262626;stroke:#262626;color-rendering:optimizeQuality;image-rendering:optimizeQuality;text-rendering:geometricPrecision"
     transform="translate(36.0156,114.6339)">
    <path
       id="path1225"
       d="m -12.5781,-5.0469 v 8.7031 h 1.5469 V 4.5 h -4.0626 V 3.6562 H -13.5 v -7.5937 l -1.75,0.2031 v -0.6562 q 0.5469,-0.1563 1.0312,-0.3203 0.4844,-0.1641 0.8907,-0.336 z m 5.2335,4.8594 q 0,1.9844 0.5703,2.9922 0.5704,1.0078 1.6954,1.0078 1.125,0 1.6953,-1.0078 0.5703,-1.0078 0.5703,-2.9922 0,-2 -0.5703,-3.0078 -0.5703,-1.0078 -1.6953,-1.0078 -1.1094,0 -1.6875,1.0234 -0.5782,1.0235 -0.5782,2.9922 z m -1,0 q 0,-2.375 0.8438,-3.6172 0.8437,-1.2422 2.4219,-1.2422 1.5937,0 2.4296,1.2422 0.836,1.2422 0.836,3.6172 0,2.3594 -0.836,3.6016 -0.8359,1.2421 -2.4296,1.2421 -1.5782,0 -2.4219,-1.2421 -0.8438,-1.2422 -0.8438,-3.6016 z"
       style="stroke:none" />
  </g>
  <g
     id="g1231"
     style="font-size:13.3333px;font-family:'NewsGoth BT';color-interpolation:linearRGB;fill:#262626;stroke:#262626;color-rendering:optimizeQuality;image-rendering:optimizeQuality;text-rendering:geometricPrecision"
     transform="translate(36.0156,66.3482)">
    <path
       id="path1229"
       d="m -12.5781,-5.0469 v 8.7031 h 1.5469 V 4.5 h -4.0626 V 3.6562 H -13.5 v -7.5937 l -1.75,0.2031 v -0.6562 q 0.5469,-0.1563 1.0312,-0.3203 0.4844,-0.1641 0.8907,-0.336 z M -8.3446,4.5 V 3.625 q 0.3125,-0.7031 0.8203,-1.3516 0.5079,-0.6484 1.2579,-1.3046 0.3281,-0.2969 1.0703,-0.836 0.7422,-0.539 1.039,-0.8516 0.4532,-0.4687 0.6563,-0.8906 0.2031,-0.4218 0.2031,-0.8594 0,-0.8124 -0.4766,-1.2812 -0.4765,-0.4688 -1.3203,-0.4688 -0.8437,0 -1.4218,0.5157 -0.5782,0.5156 -0.7813,1.5 l -0.9062,-0.2031 q 0.2812,-1.2969 1.0781,-1.9688 0.7969,-0.6719 2.0625,-0.6719 1.2812,0 2.0312,0.6875 0.75,0.6875 0.75,1.8438 0,0.5 -0.125,0.9062 -0.125,0.4063 -0.375,0.75 -0.4843,0.6875 -2,1.8125 -0.3437,0.25 -0.5156,0.375 Q -6.0946,1.9219 -6.6102,2.5 -7.1258,3.0781 -7.3758,3.625 h 5.0937 V 4.5 Z"
       style="stroke:none" />
  </g>
  <g
     id="g1235"
     style="font-size:13.3333px;font-family:'NewsGoth BT';color-interpolation:linearRGB;fill:#262626;stroke:#262626;color-rendering:optimizeQuality;image-rendering:optimizeQuality;text-rendering:geometricPrecision"
     transform="translate(36.0156,18.0625)">
    <path
       id="path1233"
       d="m -12.5781,-5.0469 v 8.7031 h 1.5469 V 4.5 h -4.0626 V 3.6562 H -13.5 v -7.5937 l -1.75,0.2031 v -0.6562 q 0.5469,-0.1563 1.0312,-0.3203 0.4844,-0.1641 0.8907,-0.336 z m 9.2804,0.1563 v 6.3594 h 1.5469 v 0.8124 h -1.5469 v 2.375 H -4.2196 V 2.2812 H -8.4539 V 1.6094 l 3.8125,-6.5 z m -0.9219,6.3594 v -5.5 l -3.2031,5.5 z"
       style="stroke:none" />
  </g>
  <g
     id="g1243"
     style="font-size:13.3333px;font-family:mwb_cmsy10;color-interpolation:linearRGB;fill:#262626;stroke:#262626;color-rendering:optimizeQuality;image-rendering:optimizeQuality;text-rendering:geometricPrecision"
     transform="translate(49.0789,14.0625)" />
  <g
     id="g1247"
     style="font-size:13.3333px;font-family:'NewsGoth BT';color-interpolation:linearRGB;fill:#262626;stroke:#262626;color-rendering:optimizeQuality;image-rendering:optimizeQuality;text-rendering:geometricPrecision"
     transform="translate(60.0789,14.0625)" />
  <g
     id="g1251"
     style="font-size:10.6667px;font-family:'NewsGoth BT';color-interpolation:linearRGB;fill:#262626;stroke:#262626;color-rendering:optimizeQuality;image-rendering:optimizeQuality;text-rendering:geometricPrecision"
     transform="translate(77.0789,8.0625)" />
  <g
     id="g1255"
     style="font-weight:bold;font-size:14.6667px;font-family:'NewsGoth BT';color-interpolation:linearRGB;color-rendering:optimizeQuality;image-rendering:optimizeQuality;text-rendering:geometricPrecision"
     transform="translate(435.5794,15.3206)">
    <path
       id="path1253"
       d="m -87.0938,-6.4688 1.8594,-0.8124 q 0.4375,0.8593 0.961,1.2578 0.5234,0.3984 1.2578,0.3984 0.8125,0 1.289,-0.3672 Q -81.25,-6.3594 -81.25,-7 q 0,-0.5156 -0.3516,-0.8516 -0.3515,-0.3359 -1.2578,-0.6796 -0.125,-0.0469 -0.3594,-0.125 -1.6093,-0.5938 -2.2343,-1 -0.625,-0.3907 -0.9531,-1.0079 -0.3282,-0.6171 -0.3282,-1.3984 0,-1.3125 0.9844,-2.1328 0.9844,-0.8203 2.5781,-0.8203 1.3907,0 2.3125,0.5937 0.9219,0.5938 1.3594,1.7813 l -1.8594,0.6718 q -0.3437,-0.7187 -0.8125,-1.0546 -0.4687,-0.336 -1.1562,-0.336 -0.6719,0 -1.0547,0.3125 -0.3828,0.3125 -0.3828,0.8438 0,0.8281 1.875,1.5625 0.5781,0.2344 0.9062,0.375 1.5782,0.6562 2.1485,1.3515 0.5703,0.6953 0.5703,1.8203 0,1.5157 -0.9922,2.375 -0.9922,0.8594 -2.711,0.8594 -1.5,0 -2.5468,-0.6562 -1.0469,-0.6563 -1.5782,-1.9532 z m 11.2596,0.1094 q 0,0.5782 0.164,0.75 0.1641,0.1719 0.6016,0.1719 0.1719,0 0.3672,-0.0156 0.1953,-0.0157 0.3984,-0.0469 v 1.5312 q -0.3125,0.0626 -0.7109,0.1016 -0.3985,0.0391 -0.836,0.0391 -0.9531,0 -1.3984,-0.4453 -0.4453,-0.4454 -0.4453,-1.3985 v -4.6562 h -1.0156 v -1.5313 h 1.0156 v -2.5156 h 1.8594 v 2.5156 h 1.5312 v 1.5313 h -1.5312 z m 6.5331,-1.4687 q -1.3438,0.1875 -1.9532,0.5859 -0.6093,0.3984 -0.6093,1.086 0,0.3906 0.2187,0.6171 0.2188,0.2266 0.625,0.2266 0.4375,0 0.8672,-0.2109 0.4297,-0.211 0.8516,-0.6172 z M -69.098,-4 -69.2543,-4.6875 q -0.5312,0.3906 -1.1172,0.5859 -0.5859,0.1954 -1.2265,0.1954 -0.9844,0 -1.5391,-0.5626 -0.5547,-0.5624 -0.5547,-1.5312 0,-1.2969 1.0782,-2.0391 1.0781,-0.7421 3.375,-1.0234 v -0.625 q 0,-0.4219 -0.2891,-0.6563 -0.2891,-0.2343 -0.8203,-0.2343 -0.5313,0 -0.9688,0.2265 -0.4375,0.2266 -0.75,0.6641 l -1.2656,-0.7969 q 0.4844,-0.7656 1.2422,-1.1484 0.7578,-0.3828 1.7734,-0.3828 1.3594,0 2.1172,0.6172 0.7578,0.6172 0.7578,1.7109 v 4.625 q 0,0.1875 0.0313,0.4453 0.0312,0.2578 0.0937,0.6172 z m 5.257,-2.0938 q 0.3594,0.3594 0.6953,0.5235 0.336,0.1641 0.6953,0.1641 0.7969,0 1.2266,-0.6563 0.4297,-0.6563 0.4297,-1.875 0,-1.2031 -0.4375,-1.875 -0.4375,-0.6719 -1.2031,-0.6719 -0.3594,0 -0.6954,0.1563 -0.3359,0.1562 -0.7109,0.5 z M -65.7472,-4 q 0.0312,-0.625 0.0546,-1.0859 0.0235,-0.461 0.0235,-0.7422 v -9.0781 h 1.8281 v 3.7968 q 0.4063,-0.4844 0.8594,-0.6953 0.4531,-0.2109 1.0469,-0.2109 1.3281,0 2.1718,1.1328 0.8438,1.1328 0.8438,2.9453 0,1.8281 -0.8594,2.9531 -0.8594,1.125 -2.2031,1.125 -0.6406,0 -1.1485,-0.2344 -0.5078,-0.2343 -0.9921,-0.75 L -64.3097,-4 Z m 8.0789,-9.1406 v -1.7656 h 1.8594 v 1.7656 z m 0,9.1406 v -7.8594 h 1.8594 V -4 Z m 3.7499,0 v -10.9062 h 1.8594 V -4 Z m 3.75,-9.1406 v -1.7656 h 1.8594 v 1.7656 z m 0,9.1406 v -7.8594 h 1.8594 V -4 Z m 5.8437,-2.3594 q 0,0.5782 0.164,0.75 0.1641,0.1719 0.6016,0.1719 0.1719,0 0.3672,-0.0156 0.1953,-0.0157 0.3984,-0.0469 v 1.5312 q -0.3125,0.0626 -0.7109,0.1016 -0.3984,0.0391 -0.8359,0.0391 -0.9532,0 -1.3985,-0.4453 -0.4453,-0.4454 -0.4453,-1.3985 v -4.6562 h -1.0156 v -1.5313 h 1.0156 v -2.5156 h 1.8594 v 2.5156 h 1.5312 v 1.5313 h -1.5312 z m 4.4862,2.1406 -2.75,-7.6406 h 1.8594 l 1.7187,5.1563 1.6094,-5.1563 h 1.8125 l -2.4531,7.4219 q -0.7188,2.125 -1.3594,2.7031 -0.6406,0.5782 -1.8281,0.5782 -0.2032,0 -0.4063,-0.0235 -0.2031,-0.0234 -0.4219,-0.0859 v -1.5469 q 0.2032,0.0469 0.3907,0.0703 0.1875,0.0234 0.375,0.0234 0.625,0 0.9609,-0.3437 0.3359,-0.3437 0.4922,-1.1563 z m 10.9346,-3.7187 q 0,1.25 0.375,1.875 0.375,0.625 1.1093,0.625 0.75,0 1.1172,-0.6172 0.3672,-0.6172 0.3672,-1.8828 0,-1.25 -0.3672,-1.8594 -0.3672,-0.6093 -1.1172,-0.6093 -0.75,0 -1.1172,0.6171 -0.3671,0.6172 -0.3671,1.8516 z m -1.875,0 q 0,-1.9219 0.8906,-3 0.8906,-1.0781 2.4687,-1.0781 1.5782,0 2.4688,1.0781 0.8906,1.0781 0.8906,3 0,1.9219 -0.8906,3 -0.8906,1.0781 -2.4688,1.0781 -1.5781,0 -2.4687,-1.0781 -0.8906,-1.0781 -0.8906,-3 z M -22.6918,-4 v -6.3438 h -1.0937 v -1.5156 h 1.0937 v -1.2187 q 0,-0.9531 0.586,-1.461 0.5859,-0.5078 1.6797,-0.5078 0.2656,0 0.5468,0.0157 0.2813,0.0156 0.5625,0.0624 v 1.5626 q -0.1093,-0.0157 -0.2343,-0.0235 -0.125,-0.0078 -0.3594,-0.0078 -0.5313,0 -0.7344,0.2031 -0.2031,0.2032 -0.2031,0.75 v 0.625 h 1.4844 v 1.5156 h -1.4375 V -4 Z m 12.6025,-3.8281 q -1.3438,0.1875 -1.9531,0.5859 -0.6094,0.3984 -0.6094,1.086 0,0.3906 0.2187,0.6171 0.2188,0.2266 0.625,0.2266 0.4375,0 0.8672,-0.2109 0.4297,-0.211 0.8516,-0.6172 z M -9.8862,-4 -10.0424,-4.6875 q -0.5313,0.3906 -1.1172,0.5859 -0.586,0.1954 -1.2266,0.1954 -0.9844,0 -1.5391,-0.5626 -0.5546,-0.5624 -0.5546,-1.5312 0,-1.2969 1.0781,-2.0391 1.0781,-0.7421 3.375,-1.0234 v -0.625 q 0,-0.4219 -0.2891,-0.6563 -0.289,-0.2343 -0.8203,-0.2343 -0.5312,0 -0.9687,0.2265 -0.4375,0.2266 -0.75,0.6641 l -1.2657,-0.7969 q 0.4844,-0.7656 1.2422,-1.1484 0.7578,-0.3828 1.7735,-0.3828 1.3593,0 2.1171,0.6172 0.7579,0.6172 0.7579,1.7109 v 4.625 q 0,0.1875 0.0312,0.4453 0.0313,0.2578 0.0938,0.6172 z m 3.4289,0 v -7.8594 h 1.7813 v 1.2969 q 0.375,-0.7031 0.8671,-1.0703 Q -3.3167,-12 -2.7385,-12 q 0.1093,0 0.1562,0.0078 0.0469,0.0078 0.0938,0.0234 v 1.9219 h -0.0938 q -0.625,0 -1.1406,0.3281 -0.5156,0.3282 -0.8438,0.9063 V -4 Z m 5.0453,0 v -7.8594 h 1.7812 v 1.2969 q 0.375,-0.7031 0.8672,-1.0703 Q 1.7286,-12 2.3067,-12 q 0.1094,0 0.1563,0.0078 0.0468,0.0078 0.0937,0.0234 v 1.9219 H 2.463 q -0.625,0 -1.1407,0.3281 -0.5156,0.3282 -0.8437,0.9063 V -4 Z m 8.9202,-3.8281 q -1.3438,0.1875 -1.9531,0.5859 -0.6094,0.3984 -0.6094,1.086 0,0.3906 0.2187,0.6171 0.2188,0.2266 0.625,0.2266 0.4375,0 0.8672,-0.2109 0.4297,-0.211 0.8516,-0.6172 z M 7.7113,-4 7.5551,-4.6875 q -0.5313,0.3906 -1.1172,0.5859 -0.586,0.1954 -1.2266,0.1954 -0.9844,0 -1.539,-0.5626 Q 3.1176,-5.0312 3.1176,-6 q 0,-1.2969 1.0781,-2.0391 1.0781,-0.7421 3.375,-1.0234 v -0.625 q 0,-0.4219 -0.2891,-0.6563 -0.289,-0.2343 -0.8203,-0.2343 -0.5312,0 -0.9687,0.2265 -0.4375,0.2266 -0.75,0.6641 l -1.2657,-0.7969 q 0.4844,-0.7656 1.2422,-1.1484 0.7578,-0.3828 1.7735,-0.3828 1.3593,0 2.1172,0.6172 0.7578,0.6172 0.7578,1.7109 v 4.625 q 0,0.1875 0.0312,0.4453 Q 9.4301,-4.3594 9.4926,-4 Z m 5.2571,-0.2188 -2.75,-7.6406 h 1.8593 l 1.7188,5.1563 1.6094,-5.1563 h 1.8125 l -2.4532,7.4219 q -0.7187,2.125 -1.3593,2.7031 -0.6407,0.5782 -1.8282,0.5782 -0.2031,0 -0.4062,-0.0235 -0.2031,-0.0234 -0.4219,-0.0859 v -1.5469 q 0.2031,0.0469 0.3906,0.0703 0.1875,0.0234 0.375,0.0234 0.625,0 0.961,-0.3437 0.3359,-0.3437 0.4922,-1.1563 z m 4.5217,-1.2031 1.2656,-1 q 0.4375,0.5781 0.8828,0.8516 0.4453,0.2734 0.9141,0.2734 0.5,0 0.7968,-0.2343 0.2969,-0.2344 0.2969,-0.625 0,-0.5938 -1.2344,-1.0469 -0.1406,-0.0625 -0.2031,-0.0781 -1.4687,-0.5626 -1.9609,-1.086 -0.4922,-0.5234 -0.4922,-1.3516 0,-1 0.75,-1.6484 0.75,-0.6484 1.9375,-0.6484 0.8125,0 1.4609,0.2968 0.6485,0.2969 1.1953,0.9063 l -1.1718,1.0156 q -0.375,-0.4062 -0.75,-0.5937 -0.375,-0.1875 -0.7813,-0.1875 -0.4687,0 -0.7344,0.2031 -0.2656,0.2031 -0.2656,0.5625 0,0.4375 1.2344,0.9063 0.3281,0.125 0.5156,0.2031 1.2656,0.4843 1.7188,1.0156 0.4531,0.5313 0.4531,1.4375 0,1.0938 -0.75,1.7578 -0.75,0.6641 -2,0.6641 -0.9688,0 -1.7109,-0.3828 -0.7422,-0.3829 -1.3672,-1.211 z m 12.8607,-2.5156 q 0,1.25 0.375,1.875 0.375,0.625 1.1094,0.625 0.75,0 1.1172,-0.6172 0.3672,-0.6172 0.3672,-1.8828 0,-1.25 -0.3672,-1.8594 -0.3672,-0.6093 -1.1172,-0.6093 -0.75,0 -1.1172,0.6171 -0.3672,0.6172 -0.3672,1.8516 z m -1.875,0 q 0,-1.9219 0.8906,-3 0.8907,-1.0781 2.4688,-1.0781 1.5781,0 2.4687,1.0781 0.8907,1.0781 0.8907,3 0,1.9219 -0.8907,3 -0.8906,1.0781 -2.4687,1.0781 -1.5781,0 -2.4688,-1.0781 -0.8906,-1.0781 -0.8906,-3 z M 38.1099,-4 35.5161,-11.8594 h 1.8438 l 1.2812,4.2344 q 0.0625,0.1719 0.1485,0.5547 0.0859,0.3828 0.2109,1.0391 0.0781,-0.6407 0.3438,-1.4844 0.0312,-0.0625 0.0468,-0.1094 l 1.2813,-4.2344 h 1.8437 L 39.938,-4 Z m 6.6467,-4.9531 h 2.8594 q 0,-0.7813 -0.375,-1.2188 -0.375,-0.4375 -1.0469,-0.4375 -0.625,0 -1.0078,0.4297 -0.3828,0.4297 -0.4297,1.2266 z m 4.6094,3.4062 q -0.4532,0.8438 -1.25,1.2657 -0.7969,0.4218 -1.8907,0.4218 -1.5781,0 -2.4531,-1.0703 -0.875,-1.0703 -0.875,-2.9922 0,-1.9219 0.875,-3.0078 0.875,-1.0859 2.4219,-1.0859 1.5469,0 2.3984,1.0468 0.8516,1.0469 0.8516,2.9532 0,0.0625 -0.0078,0.1953 -0.0078,0.1328 -0.0078,0.1953 l -4.7032,0.0156 q 0.0157,1.1094 0.4297,1.6719 0.4141,0.5625 1.2422,0.5625 0.5156,0 0.8906,-0.2422 0.375,-0.2422 0.7032,-0.7734 z M 50.7007,-4 v -7.8594 h 1.7812 v 1.2969 q 0.375,-0.7031 0.8672,-1.0703 Q 53.8413,-12 54.4194,-12 q 0.1094,0 0.1563,0.0078 0.0468,0.0078 0.0937,0.0234 v 1.9219 h -0.0937 q -0.625,0 -1.1407,0.3281 -0.5156,0.3282 -0.8437,0.9063 V -4 Z m 11.5831,-2.3594 q 0,0.5782 0.164,0.75 0.1641,0.1719 0.6016,0.1719 0.1719,0 0.3672,-0.0156 0.1953,-0.0157 0.3984,-0.0469 v 1.5312 q -0.3125,0.0626 -0.7109,0.1016 -0.3985,0.0391 -0.836,0.0391 -0.9531,0 -1.3984,-0.4453 -0.4453,-0.4454 -0.4453,-1.3985 v -4.6562 h -1.0156 v -1.5313 h 1.0156 v -2.5156 h 1.8594 v 2.5156 h 1.5312 v 1.5313 h -1.5312 z m 2.658,-6.7812 v -1.7656 h 1.8594 v 1.7656 z m 0,9.1406 v -7.8594 h 1.8594 V -4 Z m 3.75,0 v -7.8594 h 1.7187 v 0.9219 q 0.4688,-0.5469 1.0156,-0.8125 0.5469,-0.2656 1.2032,-0.2656 0.7031,0 1.1718,0.289 0.4688,0.2891 0.7657,0.8828 0.6093,-0.6093 1.2109,-0.8906 0.6016,-0.2812 1.3203,-0.2812 0.9688,0 1.5313,0.539 0.5625,0.5391 0.5625,1.461 V -4 h -1.8594 v -5.4062 q 0,-0.5157 -0.2188,-0.7969 -0.2187,-0.2813 -0.625,-0.2813 -0.4375,0 -0.8515,0.2032 -0.4141,0.2031 -0.8047,0.6093 V -4 h -1.8125 v -5.2031 q 0,-0.6563 -0.1953,-0.9688 -0.1953,-0.3125 -0.6172,-0.3125 -0.4531,0 -0.8906,0.2188 -0.4375,0.2187 -0.7813,0.6094 V -4 Z m 13.4783,-4.9531 h 2.8594 q 0,-0.7813 -0.375,-1.2188 -0.375,-0.4375 -1.0469,-0.4375 -0.625,0 -1.0078,0.4297 -0.3828,0.4297 -0.4297,1.2266 z m 4.6094,3.4062 q -0.4531,0.8438 -1.25,1.2657 -0.7969,0.4218 -1.8906,0.4218 -1.5782,0 -2.4532,-1.0703 -0.875,-1.0703 -0.875,-2.9922 0,-1.9219 0.875,-3.0078 0.875,-1.0859 2.4219,-1.0859 1.5469,0 2.3984,1.0468 0.8516,1.0469 0.8516,2.9532 0,0.0625 -0.0078,0.1953 -0.0078,0.1328 -0.0078,0.1953 l -4.7031,0.0156 q 0.0156,1.1094 0.4296,1.6719 0.4141,0.5625 1.2422,0.5625 0.5157,0 0.8907,-0.2422 0.375,-0.2422 0.7031,-0.7734 z"
       style="stroke:none" />
  </g>
  <g
     transform="translate(-80.9211,-12.9375)"
     id="g1259"
     style="color-interpolation:sRGB;fill:#0072bd;fill-opacity:0.2;stroke:#0072bd;stroke-opacity:0.2;color-rendering:optimizeSpeed;image-rendering:optimizeSpeed;shape-rendering:crispEdges;text-rendering:optimizeSpeed">
    <path
       id="path1257"
       d="m 146.7483,364.3042 h 7.73 v -27.2935 h -7.73 z m 30.92,2.9515 h 7.73 v -56.6814 h -7.73 z m 51.5334,-0.9488 h 7.73 v -39.9191 h -7.73 z m 36.0733,0.0495 h 7.73 v -50.8328 h -7.73 z m 25.7667,-0.3622 h 7.73 V 162.4579 h -7.73 z m 87.6066,-3.8025 h 7.73 V 237.0593 h -7.73 z m 15.46,-0.2253 h 7.73 v -34.814 h -7.73 z M 559.015,347.5088 h 7.73 v -25.3862 h -7.73 z m 247.36,16.6653 h 7.73 v -25.8758 h -7.73 z m 30.92,-10.1668 h 7.73 v -24.9637 h -7.73 z m 10.3067,-4.9251 h 7.73 V 328.44 h -7.73 z"
       style="fill:#81c3e9;fill-opacity:1;stroke:none" />
  </g>
  <line
     y2="351.3667"
     style="color-interpolation:linearRGB;fill:none;stroke:#242424;stroke-width:1;stroke-linecap:butt;stroke-linejoin:round;stroke-miterlimit:10;stroke-dasharray:none;color-rendering:optimizeQuality;image-rendering:optimizeQuality;text-rendering:geometricPrecision"
     x1="69.6922"
     x2="69.6922"
     y1="355.52649"
     id="line1261" />
  <line
     y2="285.5654"
     style="color-interpolation:linearRGB;fill:none;stroke:#242424;stroke-width:1;stroke-linecap:butt;stroke-linejoin:round;stroke-miterlimit:10;stroke-dasharray:none;color-rendering:optimizeQuality;image-rendering:optimizeQuality;text-rendering:geometricPrecision"
     x1="69.6922"
     x2="69.6922"
     y1="324.07321"
     id="line1263" />
  <line
     y2="355.52649"
     style="color-interpolation:linearRGB;fill:none;stroke:#242424;stroke-width:1;stroke-linecap:butt;stroke-linejoin:round;stroke-miterlimit:10;stroke-dasharray:none;color-rendering:optimizeQuality;image-rendering:optimizeQuality;text-rendering:geometricPrecision"
     x1="67.759705"
     x2="71.62471"
     y1="355.52649"
     id="line1265" />
  <line
     y2="285.5654"
     style="color-interpolation:linearRGB;fill:none;stroke:#242424;stroke-width:1;stroke-linecap:butt;stroke-linejoin:round;stroke-miterlimit:10;stroke-dasharray:none;color-rendering:optimizeQuality;image-rendering:optimizeQuality;text-rendering:geometricPrecision"
     x1="67.759705"
     x2="71.62471"
     y1="285.5654"
     id="line1267" />
  <line
     y2="354.31821"
     style="color-interpolation:linearRGB;fill:none;stroke:#242424;stroke-width:1;stroke-linecap:butt;stroke-linejoin:round;stroke-miterlimit:10;stroke-dasharray:none;color-rendering:optimizeQuality;image-rendering:optimizeQuality;text-rendering:geometricPrecision"
     x1="100.6122"
     x2="100.6122"
     y1="355.54819"
     id="line1269" />
  <line
     y2="221.3454"
     style="color-interpolation:linearRGB;fill:none;stroke:#242424;stroke-width:1;stroke-linecap:butt;stroke-linejoin:round;stroke-miterlimit:10;stroke-dasharray:none;color-rendering:optimizeQuality;image-rendering:optimizeQuality;text-rendering:geometricPrecision"
     x1="100.6122"
     x2="100.6122"
     y1="297.63681"
     id="line1271" />
  <line
     y2="355.54819"
     style="color-interpolation:linearRGB;fill:none;stroke:#242424;stroke-width:1;stroke-linecap:butt;stroke-linejoin:round;stroke-miterlimit:10;stroke-dasharray:none;color-rendering:optimizeQuality;image-rendering:optimizeQuality;text-rendering:geometricPrecision"
     x1="98.679703"
     x2="102.54471"
     y1="355.54819"
     id="line1273" />
  <line
     y2="221.3454"
     style="color-interpolation:linearRGB;fill:none;stroke:#242424;stroke-width:1;stroke-linecap:butt;stroke-linejoin:round;stroke-miterlimit:10;stroke-dasharray:none;color-rendering:optimizeQuality;image-rendering:optimizeQuality;text-rendering:geometricPrecision"
     x1="98.679703"
     x2="102.54471"
     y1="221.3454"
     id="line1275" />
  <line
     y2="353.36938"
     style="color-interpolation:linearRGB;fill:none;stroke:#242424;stroke-width:1;stroke-linecap:butt;stroke-linejoin:round;stroke-miterlimit:10;stroke-dasharray:none;color-rendering:optimizeQuality;image-rendering:optimizeQuality;text-rendering:geometricPrecision"
     x1="152.1456"
     x2="152.1456"
     y1="355.7438"
     id="line1277" />
  <line
     y2="267.2168"
     style="color-interpolation:linearRGB;fill:none;stroke:#242424;stroke-width:1;stroke-linecap:butt;stroke-linejoin:round;stroke-miterlimit:10;stroke-dasharray:none;color-rendering:optimizeQuality;image-rendering:optimizeQuality;text-rendering:geometricPrecision"
     x1="152.1456"
     x2="152.1456"
     y1="313.45029"
     id="line1279" />
  <line
     y2="355.7438"
     style="color-interpolation:linearRGB;fill:none;stroke:#242424;stroke-width:1;stroke-linecap:butt;stroke-linejoin:round;stroke-miterlimit:10;stroke-dasharray:none;color-rendering:optimizeQuality;image-rendering:optimizeQuality;text-rendering:geometricPrecision"
     x1="150.2131"
     x2="154.07811"
     y1="355.7438"
     id="line1281" />
  <line
     y2="267.2168"
     style="color-interpolation:linearRGB;fill:none;stroke:#242424;stroke-width:1;stroke-linecap:butt;stroke-linejoin:round;stroke-miterlimit:10;stroke-dasharray:none;color-rendering:optimizeQuality;image-rendering:optimizeQuality;text-rendering:geometricPrecision"
     x1="150.2131"
     x2="154.07811"
     y1="267.2168"
     id="line1283" />
  <line
     y2="353.41891"
     style="color-interpolation:linearRGB;fill:none;stroke:#242424;stroke-width:1;stroke-linecap:butt;stroke-linejoin:round;stroke-miterlimit:10;stroke-dasharray:none;color-rendering:optimizeQuality;image-rendering:optimizeQuality;text-rendering:geometricPrecision"
     x1="188.21892"
     x2="188.21892"
     y1="355.81381"
     id="line1285" />
  <line
     y2="230.0368"
     style="color-interpolation:linearRGB;fill:none;stroke:#242424;stroke-width:1;stroke-linecap:butt;stroke-linejoin:round;stroke-miterlimit:10;stroke-dasharray:none;color-rendering:optimizeQuality;image-rendering:optimizeQuality;text-rendering:geometricPrecision"
     x1="188.21892"
     x2="188.21892"
     y1="302.58609"
     id="line1287" />
  <line
     y2="355.81381"
     style="color-interpolation:linearRGB;fill:none;stroke:#242424;stroke-width:1;stroke-linecap:butt;stroke-linejoin:round;stroke-miterlimit:10;stroke-dasharray:none;color-rendering:optimizeQuality;image-rendering:optimizeQuality;text-rendering:geometricPrecision"
     x1="186.28639"
     x2="190.15141"
     y1="355.81381"
     id="line1289" />
  <line
     y2="230.0368"
     style="color-interpolation:linearRGB;fill:none;stroke:#242424;stroke-width:1;stroke-linecap:butt;stroke-linejoin:round;stroke-miterlimit:10;stroke-dasharray:none;color-rendering:optimizeQuality;image-rendering:optimizeQuality;text-rendering:geometricPrecision"
     x1="186.28639"
     x2="190.15141"
     y1="230.0368"
     id="line1291" />
  <line
     y2="353.0567"
     style="color-interpolation:linearRGB;fill:none;stroke:#242424;stroke-width:1;stroke-linecap:butt;stroke-linejoin:round;stroke-miterlimit:10;stroke-dasharray:none;color-rendering:optimizeQuality;image-rendering:optimizeQuality;text-rendering:geometricPrecision"
     x1="213.98561"
     x2="213.98561"
     y1="355.80179"
     id="line1293" />
  <line
     y2="80.8339"
     style="color-interpolation:linearRGB;fill:none;stroke:#242424;stroke-width:1;stroke-linecap:butt;stroke-linejoin:round;stroke-miterlimit:10;stroke-dasharray:none;color-rendering:optimizeQuality;image-rendering:optimizeQuality;text-rendering:geometricPrecision"
     x1="213.98561"
     x2="213.98561"
     y1="149.5204"
     id="line1295" />
  <line
     y2="355.80179"
     style="color-interpolation:linearRGB;fill:none;stroke:#242424;stroke-width:1;stroke-linecap:butt;stroke-linejoin:round;stroke-miterlimit:10;stroke-dasharray:none;color-rendering:optimizeQuality;image-rendering:optimizeQuality;text-rendering:geometricPrecision"
     x1="212.05312"
     x2="215.91811"
     y1="355.80179"
     id="line1297" />
  <line
     y2="80.8339"
     style="color-interpolation:linearRGB;fill:none;stroke:#242424;stroke-width:1;stroke-linecap:butt;stroke-linejoin:round;stroke-miterlimit:10;stroke-dasharray:none;color-rendering:optimizeQuality;image-rendering:optimizeQuality;text-rendering:geometricPrecision"
     x1="212.05312"
     x2="215.91811"
     y1="80.8339"
     id="line1299" />
  <line
     y2="349.25421"
     style="color-interpolation:linearRGB;fill:none;stroke:#242424;stroke-width:1;stroke-linecap:butt;stroke-linejoin:round;stroke-miterlimit:10;stroke-dasharray:none;color-rendering:optimizeQuality;image-rendering:optimizeQuality;text-rendering:geometricPrecision"
     x1="301.59219"
     x2="301.59219"
     y1="355.07501"
     id="line1301" />
  <line
     y2="49.4482"
     style="color-interpolation:linearRGB;fill:none;stroke:#242424;stroke-width:1;stroke-linecap:butt;stroke-linejoin:round;stroke-miterlimit:10;stroke-dasharray:none;color-rendering:optimizeQuality;image-rendering:optimizeQuality;text-rendering:geometricPrecision"
     x1="301.59219"
     x2="301.59219"
     y1="224.1218"
     id="line1303" />
  <line
     y2="355.07501"
     style="color-interpolation:linearRGB;fill:none;stroke:#242424;stroke-width:1;stroke-linecap:butt;stroke-linejoin:round;stroke-miterlimit:10;stroke-dasharray:none;color-rendering:optimizeQuality;image-rendering:optimizeQuality;text-rendering:geometricPrecision"
     x1="299.6597"
     x2="303.52469"
     y1="355.07501"
     id="line1305" />
  <line
     y2="49.4482"
     style="color-interpolation:linearRGB;fill:none;stroke:#242424;stroke-width:1;stroke-linecap:butt;stroke-linejoin:round;stroke-miterlimit:10;stroke-dasharray:none;color-rendering:optimizeQuality;image-rendering:optimizeQuality;text-rendering:geometricPrecision"
     x1="299.6597"
     x2="303.52469"
     y1="49.4482"
     id="line1307" />
  <line
     y2="349.0289"
     style="color-interpolation:linearRGB;fill:none;stroke:#242424;stroke-width:1;stroke-linecap:butt;stroke-linejoin:round;stroke-miterlimit:10;stroke-dasharray:none;color-rendering:optimizeQuality;image-rendering:optimizeQuality;text-rendering:geometricPrecision"
     x1="317.05219"
     x2="317.05219"
     y1="355.10889"
     id="line1309" />
  <line
     y2="262.06631"
     style="color-interpolation:linearRGB;fill:none;stroke:#242424;stroke-width:1;stroke-linecap:butt;stroke-linejoin:round;stroke-miterlimit:10;stroke-dasharray:none;color-rendering:optimizeQuality;image-rendering:optimizeQuality;text-rendering:geometricPrecision"
     x1="317.05219"
     x2="317.05219"
     y1="314.2149"
     id="line1311" />
  <line
     y2="355.10889"
     style="color-interpolation:linearRGB;fill:none;stroke:#242424;stroke-width:1;stroke-linecap:butt;stroke-linejoin:round;stroke-miterlimit:10;stroke-dasharray:none;color-rendering:optimizeQuality;image-rendering:optimizeQuality;text-rendering:geometricPrecision"
     x1="315.11969"
     x2="318.98468"
     y1="355.10889"
     id="line1313" />
  <line
     y2="262.06631"
     style="color-interpolation:linearRGB;fill:none;stroke:#242424;stroke-width:1;stroke-linecap:butt;stroke-linejoin:round;stroke-miterlimit:10;stroke-dasharray:none;color-rendering:optimizeQuality;image-rendering:optimizeQuality;text-rendering:geometricPrecision"
     x1="315.11969"
     x2="318.98468"
     y1="262.06631"
     id="line1315" />
  <line
     y2="334.57129"
     style="color-interpolation:linearRGB;fill:none;stroke:#242424;stroke-width:1;stroke-linecap:butt;stroke-linejoin:round;stroke-miterlimit:10;stroke-dasharray:none;color-rendering:optimizeQuality;image-rendering:optimizeQuality;text-rendering:geometricPrecision"
     x1="481.95889"
     x2="481.95889"
     y1="351.9743"
     id="line1317" />
  <line
     y2="272.8501"
     style="color-interpolation:linearRGB;fill:none;stroke:#242424;stroke-width:1;stroke-linecap:butt;stroke-linejoin:round;stroke-miterlimit:10;stroke-dasharray:none;color-rendering:optimizeQuality;image-rendering:optimizeQuality;text-rendering:geometricPrecision"
     x1="481.95889"
     x2="481.95889"
     y1="309.18509"
     id="line1319" />
  <line
     y2="351.9743"
     style="color-interpolation:linearRGB;fill:none;stroke:#242424;stroke-width:1;stroke-linecap:butt;stroke-linejoin:round;stroke-miterlimit:10;stroke-dasharray:none;color-rendering:optimizeQuality;image-rendering:optimizeQuality;text-rendering:geometricPrecision"
     x1="480.0264"
     x2="483.89139"
     y1="351.9743"
     id="line1321" />
  <line
     y2="272.8501"
     style="color-interpolation:linearRGB;fill:none;stroke:#242424;stroke-width:1;stroke-linecap:butt;stroke-linejoin:round;stroke-miterlimit:10;stroke-dasharray:none;color-rendering:optimizeQuality;image-rendering:optimizeQuality;text-rendering:geometricPrecision"
     x1="480.0264"
     x2="483.89139"
     y1="272.8501"
     id="line1323" />
  <line
     y2="351.2366"
     style="color-interpolation:linearRGB;fill:none;stroke:#242424;stroke-width:1;stroke-linecap:butt;stroke-linejoin:round;stroke-miterlimit:10;stroke-dasharray:none;color-rendering:optimizeQuality;image-rendering:optimizeQuality;text-rendering:geometricPrecision"
     x1="729.31891"
     x2="729.31891"
     y1="355.367"
     id="line1325" />
  <line
     y2="306.56961"
     style="color-interpolation:linearRGB;fill:none;stroke:#242424;stroke-width:1;stroke-linecap:butt;stroke-linejoin:round;stroke-miterlimit:10;stroke-dasharray:none;color-rendering:optimizeQuality;image-rendering:optimizeQuality;text-rendering:geometricPrecision"
     x1="729.31891"
     x2="729.31891"
     y1="325.36081"
     id="line1327" />
  <line
     y2="355.367"
     style="color-interpolation:linearRGB;fill:none;stroke:#242424;stroke-width:1;stroke-linecap:butt;stroke-linejoin:round;stroke-miterlimit:10;stroke-dasharray:none;color-rendering:optimizeQuality;image-rendering:optimizeQuality;text-rendering:geometricPrecision"
     x1="727.38641"
     x2="731.2514"
     y1="355.367"
     id="line1329" />
  <line
     y2="306.56961"
     style="color-interpolation:linearRGB;fill:none;stroke:#242424;stroke-width:1;stroke-linecap:butt;stroke-linejoin:round;stroke-miterlimit:10;stroke-dasharray:none;color-rendering:optimizeQuality;image-rendering:optimizeQuality;text-rendering:geometricPrecision"
     x1="727.38641"
     x2="731.2514"
     y1="306.56961"
     id="line1331" />
  <line
     y2="341.06979"
     style="color-interpolation:linearRGB;fill:none;stroke:#242424;stroke-width:1;stroke-linecap:butt;stroke-linejoin:round;stroke-miterlimit:10;stroke-dasharray:none;color-rendering:optimizeQuality;image-rendering:optimizeQuality;text-rendering:geometricPrecision"
     x1="760.23889"
     x2="760.23889"
     y1="348.81961"
     id="line1333" />
  <line
     y2="290.39389"
     style="color-interpolation:linearRGB;fill:none;stroke:#242424;stroke-width:1;stroke-linecap:butt;stroke-linejoin:round;stroke-miterlimit:10;stroke-dasharray:none;color-rendering:optimizeQuality;image-rendering:optimizeQuality;text-rendering:geometricPrecision"
     x1="760.23889"
     x2="760.23889"
     y1="316.10611"
     id="line1335" />
  <line
     y2="348.81961"
     style="color-interpolation:linearRGB;fill:none;stroke:#242424;stroke-width:1;stroke-linecap:butt;stroke-linejoin:round;stroke-miterlimit:10;stroke-dasharray:none;color-rendering:optimizeQuality;image-rendering:optimizeQuality;text-rendering:geometricPrecision"
     x1="758.3064"
     x2="762.17145"
     y1="348.81961"
     id="line1337" />
  <line
     y2="290.39389"
     style="color-interpolation:linearRGB;fill:none;stroke:#242424;stroke-width:1;stroke-linecap:butt;stroke-linejoin:round;stroke-miterlimit:10;stroke-dasharray:none;color-rendering:optimizeQuality;image-rendering:optimizeQuality;text-rendering:geometricPrecision"
     x1="758.3064"
     x2="762.17145"
     y1="290.39389"
     id="line1339" />
  <line
     y2="336.14471"
     style="color-interpolation:linearRGB;fill:none;stroke:#242424;stroke-width:1;stroke-linecap:butt;stroke-linejoin:round;stroke-miterlimit:10;stroke-dasharray:none;color-rendering:optimizeQuality;image-rendering:optimizeQuality;text-rendering:geometricPrecision"
     x1="770.54559"
     x2="770.54559"
     y1="349.27841"
     id="line1341" />
  <line
     y2="293.29111"
     style="color-interpolation:linearRGB;fill:none;stroke:#242424;stroke-width:1;stroke-linecap:butt;stroke-linejoin:round;stroke-miterlimit:10;stroke-dasharray:none;color-rendering:optimizeQuality;image-rendering:optimizeQuality;text-rendering:geometricPrecision"
     x1="770.54559"
     x2="770.54559"
     y1="315.5025"
     id="line1343" />
  <line
     y2="349.27841"
     style="color-interpolation:linearRGB;fill:none;stroke:#242424;stroke-width:1;stroke-linecap:butt;stroke-linejoin:round;stroke-miterlimit:10;stroke-dasharray:none;color-rendering:optimizeQuality;image-rendering:optimizeQuality;text-rendering:geometricPrecision"
     x1="768.6131"
     x2="772.47809"
     y1="349.27841"
     id="line1345" />
  <line
     y2="293.29111"
     style="color-interpolation:linearRGB;fill:none;stroke:#242424;stroke-width:1;stroke-linecap:butt;stroke-linejoin:round;stroke-miterlimit:10;stroke-dasharray:none;color-rendering:optimizeQuality;image-rendering:optimizeQuality;text-rendering:geometricPrecision"
     x1="768.6131"
     x2="772.47809"
     y1="293.29111"
     id="line1347" />
  <line
     x1="65.827209"
     x2="73.557205"
     y1="344.75159"
     style="color-interpolation:linearRGB;fill:none;stroke:#000000;stroke-width:1;stroke-linecap:butt;stroke-linejoin:round;stroke-miterlimit:10;stroke-dasharray:none;color-rendering:optimizeQuality;image-rendering:optimizeQuality;text-rendering:geometricPrecision"
     y2="344.75159"
     id="line1349" />
  <line
     x1="96.747208"
     x2="104.4772"
     y1="341.2388"
     style="color-interpolation:linearRGB;fill:none;stroke:#000000;stroke-width:1;stroke-linecap:butt;stroke-linejoin:round;stroke-miterlimit:10;stroke-dasharray:none;color-rendering:optimizeQuality;image-rendering:optimizeQuality;text-rendering:geometricPrecision"
     y2="341.2388"
     id="line1351" />
  <line
     x1="148.28061"
     x2="156.0106"
     y1="341.8544"
     style="color-interpolation:linearRGB;fill:none;stroke:#000000;stroke-width:1;stroke-linecap:butt;stroke-linejoin:round;stroke-miterlimit:10;stroke-dasharray:none;color-rendering:optimizeQuality;image-rendering:optimizeQuality;text-rendering:geometricPrecision"
     y2="341.8544"
     id="line1353" />
  <line
     x1="184.3539"
     x2="192.08391"
     y1="341.48019"
     style="color-interpolation:linearRGB;fill:none;stroke:#000000;stroke-width:1;stroke-linecap:butt;stroke-linejoin:round;stroke-miterlimit:10;stroke-dasharray:none;color-rendering:optimizeQuality;image-rendering:optimizeQuality;text-rendering:geometricPrecision"
     y2="341.48019"
     id="line1355" />
  <line
     x1="210.12059"
     x2="217.8506"
     y1="325.2804"
     style="color-interpolation:linearRGB;fill:none;stroke:#000000;stroke-width:1;stroke-linecap:butt;stroke-linejoin:round;stroke-miterlimit:10;stroke-dasharray:none;color-rendering:optimizeQuality;image-rendering:optimizeQuality;text-rendering:geometricPrecision"
     y2="325.2804"
     id="line1357" />
  <line
     x1="297.72717"
     x2="305.45718"
     y1="286.4104"
     style="color-interpolation:linearRGB;fill:none;stroke:#000000;stroke-width:1;stroke-linecap:butt;stroke-linejoin:round;stroke-miterlimit:10;stroke-dasharray:none;color-rendering:optimizeQuality;image-rendering:optimizeQuality;text-rendering:geometricPrecision"
     y2="286.4104"
     id="line1359" />
  <line
     x1="313.18719"
     x2="320.91718"
     y1="325.40109"
     style="color-interpolation:linearRGB;fill:none;stroke:#000000;stroke-width:1;stroke-linecap:butt;stroke-linejoin:round;stroke-miterlimit:10;stroke-dasharray:none;color-rendering:optimizeQuality;image-rendering:optimizeQuality;text-rendering:geometricPrecision"
     y2="325.40109"
     id="line1361" />
  <line
     x1="478.0939"
     x2="485.82388"
     y1="317.71561"
     style="color-interpolation:linearRGB;fill:none;stroke:#000000;stroke-width:1;stroke-linecap:butt;stroke-linejoin:round;stroke-miterlimit:10;stroke-dasharray:none;color-rendering:optimizeQuality;image-rendering:optimizeQuality;text-rendering:geometricPrecision"
     y2="317.71561"
     id="line1363" />
  <line
     x1="725.45392"
     x2="733.1839"
     y1="344.18619"
     style="color-interpolation:linearRGB;fill:none;stroke:#000000;stroke-width:1;stroke-linecap:butt;stroke-linejoin:round;stroke-miterlimit:10;stroke-dasharray:none;color-rendering:optimizeQuality;image-rendering:optimizeQuality;text-rendering:geometricPrecision"
     y2="344.18619"
     id="line1365" />
  <line
     x1="756.3739"
     x2="764.10394"
     y1="324.91821"
     style="color-interpolation:linearRGB;fill:none;stroke:#000000;stroke-width:1;stroke-linecap:butt;stroke-linejoin:round;stroke-miterlimit:10;stroke-dasharray:none;color-rendering:optimizeQuality;image-rendering:optimizeQuality;text-rendering:geometricPrecision"
     y2="324.91821"
     id="line1367" />
  <line
     x1="766.6806"
     x2="774.41064"
     y1="322.98679"
     style="color-interpolation:linearRGB;fill:none;stroke:#000000;stroke-width:1;stroke-linecap:butt;stroke-linejoin:round;stroke-miterlimit:10;stroke-dasharray:none;color-rendering:optimizeQuality;image-rendering:optimizeQuality;text-rendering:geometricPrecision"
     y2="322.98679"
     id="line1369" />
  <path
     d="m 65.8272,351.3667 h 7.73 v 0 -27.2935 0 h -7.73 v 0 27.2935"
     style="color-interpolation:linearRGB;fill:none;fill-rule:evenodd;stroke:none;stroke-width:1;stroke-linecap:butt;stroke-linejoin:miter;stroke-miterlimit:10;stroke-dasharray:none;color-rendering:optimizeQuality;image-rendering:optimizeQuality;text-rendering:geometricPrecision"
     id="path1371" />
  <path
     d="m 96.7472,354.3182 h 7.73 v 0 -56.6814 0 h -7.73 v 0 56.6814"
     style="color-interpolation:linearRGB;fill:none;fill-rule:evenodd;stroke:none;stroke-width:1;stroke-linecap:butt;stroke-linejoin:miter;stroke-miterlimit:10;stroke-dasharray:none;color-rendering:optimizeQuality;image-rendering:optimizeQuality;text-rendering:geometricPrecision"
     id="path1373" />
  <path
     d="m 148.2806,353.3694 h 7.73 v 0 -39.9191 0 h -7.73 v 0 39.9191"
     style="color-interpolation:linearRGB;fill:none;fill-rule:evenodd;stroke:none;stroke-width:1;stroke-linecap:butt;stroke-linejoin:miter;stroke-miterlimit:10;stroke-dasharray:none;color-rendering:optimizeQuality;image-rendering:optimizeQuality;text-rendering:geometricPrecision"
     id="path1375" />
  <path
     d="m 184.3539,353.4189 h 7.73 v 0 -50.8328 0 h -7.73 v 0 50.8328"
     style="color-interpolation:linearRGB;fill:none;fill-rule:evenodd;stroke:none;stroke-width:1;stroke-linecap:butt;stroke-linejoin:miter;stroke-miterlimit:10;stroke-dasharray:none;color-rendering:optimizeQuality;image-rendering:optimizeQuality;text-rendering:geometricPrecision"
     id="path1377" />
  <path
     d="m 210.1206,353.0567 h 7.73 v 0 -203.5363 0 h -7.73 v 0 203.5363"
     style="color-interpolation:linearRGB;fill:none;fill-rule:evenodd;stroke:none;stroke-width:1;stroke-linecap:butt;stroke-linejoin:miter;stroke-miterlimit:10;stroke-dasharray:none;color-rendering:optimizeQuality;image-rendering:optimizeQuality;text-rendering:geometricPrecision"
     id="path1379" />
  <path
     d="m 297.7272,349.2542 h 7.73 v 0 -125.1324 0 h -7.73 v 0 125.1324"
     style="color-interpolation:linearRGB;fill:none;fill-rule:evenodd;stroke:none;stroke-width:1;stroke-linecap:butt;stroke-linejoin:miter;stroke-miterlimit:10;stroke-dasharray:none;color-rendering:optimizeQuality;image-rendering:optimizeQuality;text-rendering:geometricPrecision"
     id="path1381" />
  <path
     d="m 478.0939,334.5713 h 7.73 v 0 -25.3862 0 h -7.73 v 0 25.3862"
     style="color-interpolation:linearRGB;fill:none;fill-rule:evenodd;stroke:none;stroke-width:1;stroke-linecap:butt;stroke-linejoin:miter;stroke-miterlimit:10;stroke-dasharray:none;color-rendering:optimizeQuality;image-rendering:optimizeQuality;text-rendering:geometricPrecision"
     id="path1385" />
  <path
     d="m 725.4539,351.2366 h 7.73 v 0 -25.8758 0 h -7.73 v 0 25.8758"
     style="color-interpolation:linearRGB;fill:none;fill-rule:evenodd;stroke:none;stroke-width:1;stroke-linecap:butt;stroke-linejoin:miter;stroke-miterlimit:10;stroke-dasharray:none;color-rendering:optimizeQuality;image-rendering:optimizeQuality;text-rendering:geometricPrecision"
     id="path1387" />
  <path
     d="m 756.3739,341.0698 h 7.73 v 0 -24.9637 0 h -7.73 v 0 24.9637"
     style="color-interpolation:linearRGB;fill:none;fill-rule:evenodd;stroke:none;stroke-width:1;stroke-linecap:butt;stroke-linejoin:miter;stroke-miterlimit:10;stroke-dasharray:none;color-rendering:optimizeQuality;image-rendering:optimizeQuality;text-rendering:geometricPrecision"
     id="path1389" />
  <path
     d="m 766.6806,336.1447 h 7.73 v 0 -20.6422 0 h -7.73 v 0 20.6422"
     style="color-interpolation:linearRGB;fill:none;fill-rule:evenodd;stroke:none;stroke-width:1;stroke-linecap:butt;stroke-linejoin:miter;stroke-miterlimit:10;stroke-dasharray:none;color-rendering:optimizeQuality;image-rendering:optimizeQuality;text-rendering:geometricPrecision"
     id="path1391" />
  <path
     d="m 313.1872,349.0289 h 7.73 v 0 -34.814 0 h -7.73 v 0 34.814"
     style="color-interpolation:linearRGB;fill:none;fill-rule:evenodd;stroke:none;stroke-width:1;stroke-linecap:butt;stroke-linejoin:miter;stroke-miterlimit:10;stroke-dasharray:none;color-rendering:optimizeQuality;image-rendering:optimizeQuality;text-rendering:geometricPrecision"
     id="path1383" />
</svg>
